<?xml version="1.0" encoding="utf-8"?>
<svg width="16px" preserveAspectRatio="true" viewBox="0 0 20 22" xmlns="http://www.w3.org/2000/svg">
  <path d="M 2.744 17.285 L 8.229 17.285 L 8.229 18.727 L 2.744 18.727 L 2.744 17.285 Z M 9.6 8.648 L 2.744 8.648 L 2.744 10.087 L 9.6 10.087 L 9.6 8.648 Z M 12.344 12.963 L 12.344 10.087 L 8.229 14.404 L 12.344 18.727 L 12.344 15.844 L 19.2 15.844 L 19.2 12.963 L 12.344 12.963 Z M 6.175 11.523 L 2.744 11.523 L 2.744 12.963 L 6.175 12.963 L 6.175 11.523 Z M 2.744 15.844 L 6.175 15.844 L 6.175 14.404 L 2.744 14.404 L 2.744 15.844 Z M 15.085 17.285 L 16.457 17.285 L 16.457 20.169 C 16.436 20.573 16.308 20.912 16.049 21.18 C 15.794 21.454 15.471 21.588 15.085 21.611 L 1.375 21.611 C 0.625 21.611 0 20.96 0 20.169 L 0 4.32 C 0 3.532 0.625 2.881 1.375 2.881 L 5.485 2.881 C 5.485 1.283 6.708 0 8.229 0 C 9.749 0 10.975 1.283 10.975 2.881 L 15.085 2.881 C 15.837 2.881 16.457 3.532 16.457 4.32 L 16.457 11.523 L 15.085 11.523 L 15.085 7.204 L 1.375 7.204 L 1.375 20.169 L 15.085 20.169 L 15.085 17.285 Z M 2.744 5.762 L 13.716 5.762 C 13.716 4.972 13.093 4.32 12.344 4.32 L 10.975 4.32 C 10.225 4.32 9.6 3.669 9.6 2.881 C 9.6 2.092 8.977 1.44 8.229 1.44 C 7.48 1.44 6.856 2.092 6.856 2.881 C 6.856 3.669 6.235 4.32 5.485 4.32 L 4.116 4.32 C 3.365 4.32 2.744 4.972 2.744 5.762 Z" style="fill: rgb(64, 4, 163); stroke-width: 0px;"/>
</svg>