<svg width="12" viewBox="0 0 18 18" fill="none" xmlns="http://www.w3.org/2000/svg">
<path d="M17.7534 7.00809L16.9579 6.21261C16.6284 5.88309 16.0941 5.88309 15.7646 6.21261L15.5658 6.41149L11.5883 2.43402L11.7871 2.23514C12.1167 1.90562 12.1167 1.37139 11.7871 1.04191L10.9917 0.246392C10.6621 -0.0831275 10.1279 -0.0831275 9.79842 0.246392L5.42319 4.62162C5.09367 4.95114 5.09367 5.48537 5.42319 5.81485L6.21867 6.61033C6.54819 6.93985 7.08242 6.93985 7.41191 6.61033L7.61079 6.41146L9.0029 7.80357L6.15384 10.6526L5.95496 10.4538C5.51562 10.0144 4.80331 10.0144 4.36397 10.4538L0.329999 14.4878C-0.109349 14.9271 -0.109349 15.6394 0.329999 16.0788L1.92099 17.6698C2.36034 18.1091 3.07264 18.1091 3.51199 17.6698L7.54599 13.6358C7.98534 13.1964 7.98534 12.4841 7.54599 12.0448L7.34712 11.8459L10.1962 8.99684L11.5883 10.389L11.3894 10.5878C11.0599 10.9174 11.0599 11.4516 11.3894 11.7811L12.1849 12.5766C12.5144 12.9061 13.0486 12.9061 13.3781 12.5766L17.7534 8.20133C18.0828 7.87184 18.0828 7.33761 17.7534 7.00809Z" fill="#4004A3"/>
</svg>
