<svg width="129" height="128" viewBox="0 0 129 128" fill="none" xmlns="http://www.w3.org/2000/svg">
<path d="M58.1194 75.3907C58.1194 71.8675 58.5565 69.0595 59.4306 66.9668C60.3048 64.8741 62.0267 62.5827 64.5962 60.0927C67.1922 57.5761 68.8346 55.788 69.5233 54.7284C70.5829 53.1125 71.1127 51.3642 71.1127 49.4834C71.1127 46.9933 70.4902 45.0993 69.2452 43.8013C68.0267 42.4768 66.2253 41.8145 63.8412 41.8145C61.5631 41.8145 59.722 42.4635 58.318 43.7615C56.9406 45.0331 56.2518 46.7682 56.2518 48.9668H46.5962C46.6492 44.2781 48.2386 40.5695 51.3644 37.841C54.5167 35.1125 58.6757 33.7483 63.8412 33.7483C69.1657 33.7483 73.3114 35.0993 76.2783 37.8013C79.2717 40.5033 80.7684 44.2781 80.7684 49.1258C80.7684 53.4437 78.7551 57.6953 74.7286 61.8807L69.8412 66.6887C68.0929 68.6754 67.1922 71.5761 67.1392 75.3907H58.1194ZM57.4439 87.7483C57.4439 86.1854 57.9339 84.9271 58.9141 83.9735C59.8942 82.9933 61.2187 82.5033 62.8876 82.5033C64.5829 82.5033 65.9207 83.0066 66.9008 84.0132C67.881 84.9933 68.371 86.2384 68.371 87.7483C68.371 89.2052 67.8942 90.4238 66.9406 91.4039C65.9869 92.3841 64.6359 92.8741 62.8876 92.8741C61.1392 92.8741 59.7882 92.3841 58.8346 91.4039C57.9074 90.4238 57.4439 89.2052 57.4439 87.7483Z" fill="white" fill-opacity="0.15"/>
<path d="M123.848 64C123.848 96.5537 97.2739 123 64.4238 123C31.5738 123 5 96.5537 5 64C5 31.4463 31.5738 5 64.4238 5C97.2739 5 123.848 31.4463 123.848 64Z" stroke="white" stroke-opacity="0.15" stroke-width="10"/>
</svg>
