<svg width="13" height="16" viewBox="0 0 13 16" fill="none" xmlns="http://www.w3.org/2000/svg">
<path d="M11.4706 0H0.764706C0.342365 0 0 0.335781 0 0.75V1.25C0 1.66422 0.342365 2 0.764706 2C0.764706 4.84266 2.39022 7.24169 4.61506 8C2.39022 8.75831 0.764706 11.1573 0.764706 14C0.342365 14 0 14.3358 0 14.75V15.25C0 15.6642 0.342365 16 0.764706 16H11.4706C11.8929 16 12.2353 15.6642 12.2353 15.25V14.75C12.2353 14.3358 11.8929 14 11.4706 14C11.4706 11.1573 9.84508 8.75831 7.62023 8C9.84508 7.24169 11.4706 4.84266 11.4706 2C11.8929 2 12.2353 1.66422 12.2353 1.25V0.75C12.2353 0.335781 11.8929 0 11.4706 0ZM9.43137 14H2.80392C2.80392 11.5794 4.27611 9.5 6.11765 9.5C7.95887 9.5 9.43137 11.5787 9.43137 14Z" fill="#4004A3"/>
</svg>
