<svg width="14" height="14" viewBox="0 0 14 14" fill="none" xmlns="http://www.w3.org/2000/svg">
<path d="M13.808 5.45056L13.1893 4.83186C12.933 4.57556 12.5175 4.57556 12.2613 4.83186L12.1066 4.98654L9.01296 1.89295L9.16764 1.73827C9.42393 1.48197 9.42393 1.06646 9.16764 0.810191L8.54893 0.191457C8.29264 -0.0648362 7.87712 -0.0648362 7.62086 0.191457L4.2179 3.59441C3.96161 3.85071 3.96161 4.26622 4.2179 4.52249L4.83661 5.1412C5.0929 5.39749 5.50842 5.39749 5.76468 5.1412L5.91937 4.98651L7.00212 6.06927L4.78619 8.28521L4.6315 8.13052C4.28979 7.78881 3.73578 7.78881 3.39406 8.13052L0.25653 11.2681C-0.0851846 11.6098 -0.0851846 12.1638 0.25653 12.5056L1.49397 13.743C1.83569 14.0847 2.3897 14.0847 2.73141 13.743L5.86897 10.6054C6.21069 10.2637 6.21069 9.70971 5.86897 9.36799L5.71429 9.21331L7.93022 6.99737L9.01298 8.08013L8.8583 8.23481C8.60201 8.49111 8.60201 8.90662 8.8583 9.16289L9.47701 9.78159C9.7333 10.0379 10.1488 10.0379 10.4051 9.78159L13.808 6.37864C14.0643 6.12237 14.0643 5.70686 13.808 5.45056Z" fill="#FF0404"/>
</svg>
