<?xml version="1.0" encoding="UTF-8"?>
<svg width="110px" viewBox="0 0 899 307" version="1.1" xmlns="http://www.w3.org/2000/svg" xmlns:xlink="http://www.w3.org/1999/xlink">
    <!-- Generator: Sketch 53.1 (72631) - https://sketchapp.com -->
    <title>Group 6</title>
    <desc>Created with Sketch.</desc>
    <defs>
        <linearGradient x1="6.05620155e-05%" y1="50.0002263%" x2="100.000182%" y2="50.0002263%" id="linearGradient-1">
            <stop stop-color="#A3A2A5" offset="0%"></stop>
            <stop stop-color="#9F9EA0" offset="27.05%"></stop>
            <stop stop-color="#929194" offset="56.07%"></stop>
            <stop stop-color="#7C7C80" offset="85.92%"></stop>
            <stop stop-color="#707073" offset="100%"></stop>
        </linearGradient>
        <linearGradient x1="-0.661155523%" y1="79.7538399%" x2="70.3916546%" y2="24.406917%" id="linearGradient-2">
            <stop stop-color="#969598" offset="0%"></stop>
            <stop stop-color="#908F92" offset="33.96%"></stop>
            <stop stop-color="#7F7F82" offset="79.17%"></stop>
            <stop stop-color="#757578" offset="100%"></stop>
        </linearGradient>
        <linearGradient x1="5.82344729%" y1="-2.83437283%" x2="50.0098705%" y2="85.0516215%" id="linearGradient-3">
            <stop stop-color="#9E9EA0" offset="0%"></stop>
            <stop stop-color="#9B9B9D" offset="27.59%"></stop>
            <stop stop-color="#919194" offset="49.4%"></stop>
            <stop stop-color="#808083" offset="69.23%"></stop>
            <stop stop-color="#69696D" offset="87.77%"></stop>
            <stop stop-color="#55565A" offset="100%"></stop>
        </linearGradient>
    </defs>
    <g id="Sub-branding" stroke="none" stroke-width="1" fill="none" fill-rule="evenodd">
        <g id="kleros-logo" transform="translate(-4963.000000, -2965.000000)">
            <g id="Group-6" transform="translate(4963.000000, 2965.000000)">
                <g id="kleros-logo">
                    <g id="Group">
                        <polygon id="Path" fill="#656569" points="346.441972 164.449667 247.592658 64.1270745 221.594853 256.576883"></polygon>
                        <polygon id="Path" fill="url(#linearGradient-1)" points="67.9793668 141.885167 247.592658 64.1270745 221.594853 256.576883"></polygon>
                        <polygon id="Path" fill="url(#linearGradient-2)" points="247.592658 64.1270745 101.657947 0.725042553 67.9793668 141.885167"></polygon>
                        <polygon id="Path" fill="url(#linearGradient-3)" points="67.9793668 141.885167 71.4189091 295.835869 221.594853 256.576883"></polygon>
                        <polygon id="Path" fill="#757578" points="247.592658 64.1270745 275.182966 8.47515957 101.657947 0.725042553"></polygon>
                        <polygon id="Path" fill="#6C6D70" points="275.182966 8.47515957 346.441972 164.449667 247.592658 64.1270745"></polygon>
                        <polygon id="Path" fill="#6C6D70" points="346.441972 164.449667 246.678928 306.453496 221.594853 256.576883"></polygon>
                        <polygon id="Path" fill="#55565A" points="246.678928 306.453496 71.4189091 295.835869 221.594853 256.576883"></polygon>
                        <polygon id="Path" fill="#55565A" points="101.657947 0.725042553 0.624382445 127.032681 67.9793668 141.885167"></polygon>
                        <polygon id="Path" fill="#656569" points="0.624382445 127.032681 71.4189091 295.835869 67.9793668 141.885167"></polygon>
                        <polygon id="Path" fill="#1F2025" opacity="0.7" points="229.211448 90.6324965 211.00537 228.600691 103.706226 145.535418"></polygon>
                        <polygon id="Path" fill="#1F2025" opacity="0.7" points="214.680959 63.1211596 114.381643 19.8809716 93.3125423 110.795429"></polygon>
                        <polygon id="Path" fill="#2C2C31" opacity="0.7" points="189.258586 249.500642 80.2527241 171.566188 82.889489 277.172011"></polygon>
                        <polygon id="Path" fill="#2C2C31" opacity="0.7" points="328.126028 164.105652 253.844097 88.6348191 234.238053 233.761993"></polygon>
                        <polygon id="Path" fill="#4D4B50" opacity="0.7" points="214.815843 266.476 230.995398 297.465582 122.883687 290.534131"></polygon>
                        <polygon id="Path" fill="#3C3B41" opacity="0.7" points="313.60968 198.347039 233.136138 258.369894 249.12642 289.658855"></polygon>
                        <polygon id="Path" fill="#3C3B41" opacity="0.7" points="275.545194 30.267805 318.093486 121.607926 259.914966 62.3950284"></polygon>
                        <polygon id="Path" fill="#3F3D43" opacity="0.7" points="256.070771 14.8938546 238.180147 47.6481418 153.908097 10.741734"></polygon>
                        <polygon id="Path" fill="#434248" opacity="0.7" points="87.333047 29.750695 63.6173918 130.368312 15.7749028 120.222071"></polygon>
                        <polygon id="Path" fill="#4F4D53" opacity="0.7" points="60.7326144 148.115525 62.8200533 256.243755 12.6595172 137.924649"></polygon>
                    </g>
                    <g id="Group" transform="translate(405.000000, 49.000000)" fill="#3D3D41">
                        <polygon id="Path" points="10.683022 35.1901842 14.4097841 35.1901842 41.0923128 0.0309473684 48.6938194 6.01459211 22.9057137 38.7788421 53.1659339 75.4342632 45.5633392 81.8678553 14.1116432 43.4159211 10.683022 43.4159211 10.683022 79.9228158 0.695299559 79.9228158 0.695299559 1.97380263 10.683022 1.97380263 10.683022 35.1901842"></polygon>
                        <polygon id="Path" points="91.3301542 1.97598684 101.317877 1.97598684 101.317877 70.9468026 142.010855 70.9468026 142.010855 79.925 91.3301542 79.925"></polygon>
                        <polygon id="Path" points="178.832352 1.97598684 227.278084 1.97598684 227.278084 10.9530921 188.820075 10.9530921 188.820075 34.2935658 220.571 34.2935658 220.571 43.2695789 188.820075 43.2695789 188.820075 70.9478947 227.278084 70.9478947 227.278084 79.9260921 178.832352 79.9260921"></polygon>
                        <path d="M267.080991,1.97598684 L293.465379,1.97598684 C306.433423,1.97598684 316.719286,8.11034211 316.719286,23.2207105 C316.719286,32.7951974 310.309256,42.2211579 300.918903,45.0639079 L319.998837,76.6323026 L311.353837,81.8689474 L291.527463,46.559 L277.067626,46.559 L277.067626,79.9239079 L267.080991,79.9239079 L267.080991,1.97598684 Z M290.185828,37.5840789 C299.874322,37.5840789 306.284352,32.0492895 306.284352,23.2207105 C306.284352,16.1897368 302.110379,10.9530921 293.16615,10.9530921 L277.066537,10.9530921 L277.066537,37.5840789 L290.185828,37.5840789 Z" id="Shape" fill-rule="nonzero"></path>
                        <path d="M406.6077,41.0242105 C406.6077,47.3081842 406.160489,81.2704737 379.030749,81.2704737 C366.508828,81.2704737 351.453797,72.2944605 351.453797,41.0242105 C351.453797,9.90467105 366.210687,0.629421053 379.030749,0.629421053 C391.402511,0.629421053 406.6077,9.60652632 406.6077,41.0242105 Z M361.888731,41.0242105 C361.888731,52.3952105 363.975718,71.8445132 379.030749,71.8445132 C394.08578,71.8445132 396.172767,52.3952105 396.172767,41.0242105 C396.172767,29.5046842 394.08578,10.0553816 379.030749,10.0553816 C363.975718,10.0553816 361.888731,29.5046842 361.888731,41.0242105 Z" id="Shape" fill-rule="nonzero"></path>
                        <path d="M452.222181,55.2390526 C454.160097,64.8146316 458.781282,71.8445132 469.216216,71.8445132 C477.414004,71.8445132 483.824035,67.3570526 483.824035,58.6791842 C483.824035,49.1036053 475.775317,46.7108026 468.172722,43.5688158 C456.844454,38.7799342 446.111379,35.7875658 446.111379,21.1260526 C446.111379,7.96072368 456.695383,0.629421053 468.918075,0.629421053 C481.886119,0.629421053 489.488714,8.11034211 492.619194,20.2283421 L483.078683,23.0710921 C481.289837,15.4416447 477.264934,10.0553816 468.769004,10.0553816 C462.358974,10.0553816 456.098013,13.3469868 456.098013,20.3779605 C456.098013,27.7092632 460.56904,29.8039211 466.532947,32.4959605 L483.078683,39.8272632 C490.083907,43.7173421 493.81067,50.0013158 493.81067,58.0796184 C493.81067,72.89075 483.525894,81.2693816 469.215128,81.2693816 C454.756379,81.2693816 445.661991,71.9930395 443.277952,58.0796184 L452.222181,55.2390526 Z" id="Path"></path>
                    </g>
                </g>
                <text id="Escrow" font-family="Roboto-Medium, Roboto" font-size="97" font-weight="400" fill="#FFFFFF">
                    <tspan x="397" y="270">Escrow</tspan>
                </text>
                <polygon id="Rectangle" fill="#FFFFFF" points="400.159989 161 899 161 885.941931 175 386 175"></polygon>
            </g>
        </g>
    </g>
</svg>