<?xml version="1.0" encoding="UTF-8"?>
<svg width="1600px" height="800px" viewBox="0 0 1600 800" version="1.1" xmlns="http://www.w3.org/2000/svg" xmlns:xlink="http://www.w3.org/1999/xlink">
    <!-- Generator: Sketch 53.1 (72631) - https://sketchapp.com -->
    <desc>Created with Sketch.</desc>
    <defs>
        <linearGradient x1="50%" y1="100%" x2="50%" y2="3.061617e-15%" id="linearGradient-1">
            <stop stop-color="#8200D9" offset="0%"></stop>
            <stop stop-color="#4F00B5" offset="100%"></stop>
        </linearGradient>
        <linearGradient x1="50%" y1="100%" x2="50%" y2="3.061617e-15%" id="linearGradient-2">
            <stop stop-color="#4F00B5" offset="0%"></stop>
            <stop stop-color="#8000D8" offset="100%"></stop>
        </linearGradient>
        <linearGradient x1="50%" y1="100%" x2="50%" y2="3.061617e-15%" id="linearGradient-3">
            <stop stop-color="#8200D9" offset="0%"></stop>
            <stop stop-color="#4F00B5" offset="100%"></stop>
        </linearGradient>
    </defs>
    <g id="logo-escrow-white" stroke="none" stroke-width="1" fill="none" fill-rule="evenodd">
        <g id="Group-35" transform="translate(67.993545, 67.993545)">
            <path d="M763.068849,288.670362 L692.856982,288.670362 L692.856982,318.36858 L756.441709,318.36858 L756.441709,338.763743 L692.856982,338.763743 L692.856982,370.787726 L763.068849,370.787726 L763.068849,391.182888 L670.467994,391.182888 L670.467994,268.275199 L763.068849,268.275199 L763.068849,288.670362 Z M830.056702,393.150842 C808.921497,393.150842 791.010307,385.994645 777.397802,373.292395 L790.293859,357.369856 C801.577909,367.567437 814.653078,374.008014 830.77315,374.008014 C845.997662,374.008014 853.878586,366.494007 853.878586,357.727666 C853.878586,347.530084 845.102103,344.130891 825.399793,339.479362 C799.965902,333.5755 782.233823,326.240397 782.233823,303.161661 C782.233823,281.693069 800.503238,265.949435 826.474464,265.949435 C845.997662,265.949435 860.684838,272.568918 873.04356,283.124309 L860.86395,299.583563 C850.117236,290.280506 837.758514,285.092263 825.578905,285.092263 C813.220183,285.092263 804.801924,292.60627 804.801924,301.193707 C804.801924,311.212383 813.936631,314.790482 833.459829,319.263105 C859.072831,324.988063 876.267574,333.21769 876.267574,355.580806 C876.267574,377.586113 859.431055,393.150842 830.056702,393.150842 Z M956.68882,393.329747 C921.582887,393.329747 892.029422,364.168243 892.029422,329.639591 C892.029422,295.110939 921.582887,266.12834 956.68882,266.12834 C974.779123,266.12834 991.257418,273.821252 1003.0788,285.986788 L987.137845,300.835897 C979.615145,292.069555 968.510206,286.523502 956.68882,286.523502 C933.941608,286.523502 914.776634,306.203045 914.776634,329.639591 C914.776634,353.255042 933.941608,372.934585 956.68882,372.934585 C968.689318,372.934585 979.615145,367.388532 987.316957,358.62219 L1003.0788,373.292395 C991.257418,385.636835 974.779123,393.329747 956.68882,393.329747 Z M1120.93444,391.182888 L1095.50055,391.182888 L1066.48442,349.855849 L1042.66254,349.855849 L1042.66254,391.182888 L1020.27355,391.182888 L1020.27355,268.275199 L1073.82801,268.275199 C1100.15746,268.275199 1119.85977,285.092263 1119.85977,309.065524 C1119.85977,327.671637 1107.85927,341.984032 1090.12719,347.530084 L1120.93444,391.182888 Z M1042.66254,288.849267 L1042.66254,329.281781 L1071.32044,329.281781 C1086.54495,329.281781 1097.11256,321.588869 1097.11256,309.065524 C1097.11256,296.542179 1086.54495,288.849267 1071.32044,288.849267 L1042.66254,288.849267 Z M1200.1019,393.329747 C1164.99597,393.329747 1135.4425,364.168243 1135.4425,329.639591 C1135.4425,295.110939 1164.99597,266.12834 1200.1019,266.12834 C1235.02872,266.12834 1264.58219,295.110939 1264.58219,329.639591 C1264.58219,364.168243 1235.02872,393.329747 1200.1019,393.329747 Z M1200.1019,372.934585 C1222.67,372.934585 1241.65586,353.255042 1241.65586,329.639591 C1241.65586,306.203045 1222.67,286.523502 1200.1019,286.523502 C1177.35469,286.523502 1158.18972,306.203045 1158.18972,329.639591 C1158.18972,353.255042 1177.35469,372.934585 1200.1019,372.934585 Z M1311.86773,391.182888 L1272.82134,268.275199 L1297.35967,268.275199 L1323.68912,356.296426 L1352.88436,268.275199 L1377.24358,268.275199 L1406.25971,356.296426 L1432.58916,268.275199 L1457.12749,268.275199 L1418.2602,391.182888 L1395.87122,391.182888 L1365.06397,299.941372 L1334.07761,391.182888 L1311.86773,391.182888 Z" id="ESCROW" fill="#FFFFFF" fill-rule="nonzero"></path>
            <g id="Group-34">
                <path d="M0,165.034965 C0.331770834,385.848873 94.6480503,550.883838 282.948838,660.13986 C475.309645,543.883919 571.490048,378.848954 571.490048,165.034965 L286.173318,0 L0,165.034965 Z" id="Path-104" fill="#E5CBFD"></path>
                <path d="M43.096138,189.410994 C46.6667639,375.406955 126.205691,514.72442 282.954667,609.684283 C443.611002,508.827669 524.932991,369.409175 528.40297,189.397768 L286.124713,49.3083758 L43.096138,189.410994 Z" id="Path-104" stroke="url(#linearGradient-2)" stroke-width="42.1732114" fill="url(#linearGradient-1)"></path>
                <path d="M64.3587182,201.82894 C64.6157639,372.837365 137.689067,500.648016 283.578627,585.260893 C432.613762,495.226957 507.13133,367.416306 507.13133,201.82894 L286.076852,74.0182894 L64.3587182,201.82894 Z" id="Path-104" fill="url(#linearGradient-3)"></path>
                <path d="M64.3587182,201.82894 C64.6157639,372.837365 137.689067,500.648016 283.578627,585.260893 L286.076852,74.0182894 L64.3587182,201.82894 Z" id="Path-104" fill-opacity="0.12" fill="#FFFFFF"></path>
                <g id="Group-5" transform="translate(125.658956, 152.339968)">
                    <polygon id="Polygon" fill="#5100B6" transform="translate(160.106205, 167.098548) rotate(-23.000000) translate(-160.106205, -167.098548) " points="152.840906 36.2113149 275.047155 94.4581793 278.270156 226.731345 163.987747 297.98578 42.1376067 237.024329 41.9422527 95.1030266"></polygon>
                    <path d="M100.704859,48.785534 L237.922761,54.8756883 L293.476937,177.442717 L215.100313,289.460835 L77.1364676,280.687899 L20.5758738,147.887289 L100.704859,48.785534 Z M200.817223,120.355687 L101.593412,163.322507 L186.423587,228.329077 L200.817223,120.355687 Z M189.32949,98.8254187 L110.033344,64.9858105 L93.3762173,136.135122 L189.32949,98.8254187 Z M169.230687,244.685299 L83.0511894,183.694089 L85.1358027,266.340808 L169.230687,244.685299 Z M279.018603,177.855502 L220.291674,118.792312 L204.791232,232.368292 L279.018603,177.855502 Z M189.436129,257.97015 L116.755018,276.797953 L202.227605,282.22248 L189.436129,257.97015 Z M267.54205,204.652682 L203.920063,251.626342 L216.561902,276.112965 L267.54205,204.652682 Z M237.448454,73.1145072 L225.091273,98.2571511 L271.086924,144.596941 L237.448454,73.1145072 Z M222.052071,61.0829115 L141.282765,57.8334776 L207.907832,86.7162933 L222.052071,61.0829115 Z M88.6488578,72.7098189 L32.0753414,143.512377 L69.8993776,151.452787 L88.6488578,72.7098189 Z M67.6186868,165.341689 L29.6123329,157.366348 L69.2690056,249.962434 L67.6186868,165.341689 Z" id="Combined-Shape" fill="#FFFFFF"></path>
                </g>
            </g>
        </g>
    </g>
</svg>
