<?xml version="1.0" encoding="utf-8"?>
<svg version="1.1" id="Capa_1" x="0px" y="0px" width="22px" height="22px" viewBox="0 0 11 8" style="enable-background:new 0 0 564.445 564.445;" preserveAspectRatio="xMinYMax" xmlns="http://www.w3.org/2000/svg">
  <g transform="matrix(0.019488, 0, 0, 0.019488, 0, -1.483131)">
    <g>
      <path d="M505.806,78.032H58.64c-32.058,0-58.14,26.082-58.14,58.14v292.102c0,32.057,26.082,58.139,58.14,58.139h447.166 c32.059,0,58.14-26.082,58.14-58.139V136.172C563.945,104.114,537.863,78.032,505.806,78.032z M486.64,120.872L295.534,272.474 c-7.838,6.218-18.786,6.218-26.624,0L77.806,120.872H486.64z M521.105,428.274c0,8.449-6.85,15.299-15.3,15.299H58.64 c-8.45,0-15.3-6.85-15.3-15.299V148.214l198.947,157.822c11.312,8.975,25.496,13.916,39.937,13.916s28.624-4.941,39.937-13.916 l198.945-157.822V428.274z" style="fill: rgb(64, 4, 163);"/>
      <path d="M505.806,486.913H58.64C26.306,486.913,0,460.607,0,428.274V136.172c0-32.334,26.306-58.64,58.64-58.64h447.166 c32.334,0,58.64,26.306,58.64,58.64v292.102C564.445,460.607,538.14,486.913,505.806,486.913z M58.64,78.532 C26.857,78.532,1,104.39,1,136.172v292.102c0,31.782,25.857,57.639,57.64,57.639h447.166c31.782,0,57.64-25.856,57.64-57.639 V136.172c0-31.783-25.857-57.64-57.64-57.64H58.64z M505.806,444.073H58.64c-8.712,0-15.8-7.087-15.8-15.799V147.179 l199.757,158.465c11.224,8.904,25.296,13.808,39.626,13.808c14.329,0,28.402-4.903,39.626-13.808l199.756-158.465v281.095 C521.605,436.986,514.518,444.073,505.806,444.073z M43.84,149.249v279.026c0,8.16,6.639,14.799,14.8,14.799h447.166 c8.16,0,14.8-6.639,14.8-14.799V149.249L322.471,306.428c-11.4,9.044-25.694,14.024-40.248,14.024 c-14.554,0-28.848-4.98-40.247-14.024L43.84,149.249z M282.222,277.637c-4.906,0-9.744-1.695-13.623-4.772L76.371,120.372h411.703 L295.845,272.865C291.966,275.942,287.128,277.637,282.222,277.637z M79.24,121.372l189.98,150.71 c3.703,2.938,8.32,4.555,13.001,4.555s9.298-1.618,13.001-4.555l189.981-150.71H79.24z" style="fill: rgb(64, 4, 163);"/>
    </g>
  </g>
</svg>