<svg width="17" height="16" viewBox="0 0 17 16" fill="none" xmlns="http://www.w3.org/2000/svg">
<path d="M8.05 4.50938L9.6125 4.95625C9.725 4.9875 9.80313 5.09375 9.80313 5.20937C9.80313 5.35313 9.68437 5.47188 9.54062 5.47188H8.51562C8.40312 5.47188 8.29375 5.44687 8.19375 5.40312C8.04375 5.33437 7.86875 5.35 7.75313 5.46562L7.20625 6.0125C7.04063 6.17812 7.05938 6.45937 7.25313 6.5875C7.55 6.78438 7.8875 6.90313 8.24687 6.94688V7.5C8.24687 7.775 8.47188 8 8.74687 8H9.24687C9.52187 8 9.74687 7.775 9.74687 7.5V6.95C10.6937 6.8375 11.4125 5.98125 11.2875 4.98125C11.1969 4.2625 10.6406 3.69062 9.94687 3.49062L8.38437 3.04375C8.27187 3.0125 8.19375 2.90625 8.19375 2.79063C8.19375 2.64688 8.3125 2.52813 8.45625 2.52813H9.48125C9.59375 2.52813 9.70312 2.55312 9.80313 2.59687C9.95312 2.66562 10.1281 2.65 10.2437 2.53437L10.7906 1.9875C10.9562 1.82187 10.9375 1.54062 10.7437 1.4125C10.4469 1.21563 10.1094 1.09688 9.75 1.05313V0.5C9.75 0.225 9.525 0 9.25 0H8.75C8.475 0 8.25 0.225 8.25 0.5V1.05C7.30312 1.1625 6.58437 2.01875 6.70937 3.01875C6.8 3.7375 7.35625 4.30938 8.05 4.50938ZM16.6844 10.2531C16.3344 9.91875 15.7937 9.94063 15.425 10.2531L12.7 12.5625C12.3656 12.8469 11.95 13 11.5188 13H8.02812C7.76875 13 7.55625 12.775 7.55625 12.5C7.55625 12.225 7.76875 12 8.02812 12H10.3375C10.8094 12 11.2438 11.6594 11.3188 11.1687C11.4156 10.5437 10.9594 10 10.3875 10H5.66563C4.86875 10 4.09688 10.2906 3.48125 10.8219L2.10938 12H0.471875C0.2125 12 0 12.225 0 12.5V15.5C0 15.775 0.2125 16 0.471875 16H11C11.4281 16 11.8438 15.8469 12.1812 15.5625L16.6437 11.7812C17.0938 11.4031 17.1281 10.6781 16.6844 10.2531Z" fill="#37D500"/>
</svg>
