<svg width="12" height="14" viewBox="0 0 12 14" fill="none" xmlns="http://www.w3.org/2000/svg">
<path d="M11.1429 5.6875H7.28571V1.75C7.28571 1.26684 6.90188 0.875 6.42857 0.875H5.57143C5.09812 0.875 4.71429 1.26684 4.71429 1.75V5.6875H0.857143C0.383839 5.6875 0 6.07934 0 6.5625V7.4375C0 7.92066 0.383839 8.3125 0.857143 8.3125H4.71429V12.25C4.71429 12.7332 5.09812 13.125 5.57143 13.125H6.42857C6.90188 13.125 7.28571 12.7332 7.28571 12.25V8.3125H11.1429C11.6162 8.3125 12 7.92066 12 7.4375V6.5625C12 6.07934 11.6162 5.6875 11.1429 5.6875Z" fill="white"/>
</svg>
