<svg width="19" height="11" viewBox="0 0 19 11" fill="none" xmlns="http://www.w3.org/2000/svg">
<path d="M15.4137 1.83047L14.0006 0.466927C13.6879 0.167814 13.2653 -3.3189e-06 12.825 0H6.09187C5.6525 0 5.22797 0.169011 4.91625 0.466927L3.50312 1.83047H0V9.15521H1.9C2.4225 9.15521 2.84406 8.74844 2.84703 8.24714H3.11719L5.62875 10.4357C6.54609 11.1547 7.81969 11.1719 8.76375 10.5445C9.13484 10.8539 9.53562 11 9.98391 11C10.5242 11 11.0319 10.788 11.4327 10.3125C12.0887 10.5617 12.8636 10.387 13.3327 9.83125L14.1105 8.90599C14.2767 8.70833 14.3806 8.48203 14.4341 8.24714H16.153C16.1559 8.74844 16.5805 9.15521 17.1 9.15521H19V1.83047H15.4137ZM1.425 8.23854C1.16375 8.23854 0.95 8.03229 0.95 7.78021C0.95 7.52813 1.16375 7.32188 1.425 7.32188C1.68625 7.32188 1.9 7.52813 1.9 7.78021C1.9 8.03516 1.68625 8.23854 1.425 8.23854ZM13.0031 8.04089L12.2283 8.96328C12.1452 9.06068 11.9967 9.07786 11.8928 8.99766L11.1833 8.44193L10.2927 9.4875C10.1145 9.69662 9.84734 9.625 9.75828 9.55625L8.66578 8.65391L8.20266 9.20391C7.79 9.69375 7.03891 9.76823 6.56094 9.39297L3.67234 6.87214H2.85V3.2026H4.09391L5.92563 1.43802C5.985 1.4151 6.03547 1.39505 6.09484 1.37214H7.77812L6.62922 2.38906C5.75641 3.15964 5.70594 4.46016 6.49859 5.29089C6.93797 5.75495 8.31547 6.47109 9.51188 5.41693L9.75531 5.20208L12.9675 7.71719C13.0684 7.7974 13.0833 7.94349 13.0031 8.04089ZM16.15 6.87214H14.0956C14.0273 6.79193 13.9502 6.71745 13.867 6.65156L10.8181 4.2625L11.1892 3.93594C11.3822 3.76406 11.397 3.47474 11.2189 3.28854L10.8953 2.95339C10.7172 2.76719 10.4173 2.75573 10.2244 2.92474L8.58563 4.37422C8.30359 4.62344 7.82266 4.64349 7.55844 4.37422C7.28234 4.09062 7.30609 3.65521 7.59406 3.40313L9.54156 1.68151C9.76125 1.48672 10.0462 1.38073 10.3431 1.38073L12.828 1.375C12.8903 1.375 12.9497 1.39792 12.9913 1.44089L14.823 3.20547H16.15V6.87214ZM17.575 8.23854C17.3137 8.23854 17.1 8.03229 17.1 7.78021C17.1 7.52813 17.3137 7.32188 17.575 7.32188C17.8363 7.32188 18.05 7.52813 18.05 7.78021C18.05 8.03516 17.8363 8.23854 17.575 8.23854Z" fill="#FF9900"/>
</svg>
