<svg width="33" height="24" viewBox="0 0 33 24" fill="none" xmlns="http://www.w3.org/2000/svg">
<path opacity="0.975772" fill-rule="evenodd" clip-rule="evenodd" d="M20.9412 12.4874V1.69945C17.5578 0.566484 14.1727 0 10.7859 0C7.39909 0 3.80379 0.566484 0 1.69945V12.4874C0 17.5016 2.7452 19.7566 7.17903 22.1938L10.4706 24L13.7622 22.1938C18.196 19.7566 20.9412 17.5016 20.9412 12.4874ZM10.4729 14.523L15.4219 11.5212L10.4729 3.08504L5.5206 11.5212L10.4729 14.523ZM5.5206 12.4852L10.4729 15.487L15.4252 12.4852L10.4729 19.6468L5.5206 12.4852Z" fill="white"/>
<path fill-rule="evenodd" clip-rule="evenodd" d="M25.946 17.9269L32.6362 11.2366L25.946 4.54636L25.946 8.93036H23.0564V13.3144H25.946L25.946 17.9269Z" fill="white"/>
</svg>
